<?xml version="1.0" encoding="UTF-8"?>
<!DOCTYPE svg PUBLIC "-//W3C//DTD SVG 1.1//EN" "http://www.w3.org/Graphics/SVG/1.1/DTD/svg11.dtd">
<!-- Creator: CorelDRAW X7 -->
<svg xmlns="http://www.w3.org/2000/svg" xml:space="preserve" width="574.28mm" height="80.3927mm" version="1.1" style="shape-rendering:geometricPrecision; text-rendering:geometricPrecision; image-rendering:optimizeQuality; fill-rule:evenodd; clip-rule:evenodd"
viewBox="0 0 13564 1899"
 xmlns:xlink="http://www.w3.org/1999/xlink">
 <defs>
  <style type="text/css">
   <![CDATA[
    .fil0 {fill:#007BFF}
    .fil1 {fill:#1B2A4D;fill-rule:nonzero}
   ]]>
  </style>
 </defs>
 <g id="PowerClip_x0020_Contents">
  <metadata id="CorelCorpID_0Corel-Layer"/>
  <path class="fil0" d="M1452 515c-111,73 -244,115 -387,115 -143,0 -276,-42 -387,-115 -172,-113 -293,-300 -316,-515l-251 0 0 394c174,350 536,591 954,591 418,0 780,-241 954,-591l0 -394 -250 0c-24,215 -144,402 -317,515z"/>
  <path class="fil0" d="M1766 1899l0 -728c-112,63 -233,112 -361,143l0 585 361 0z"/>
  <path class="fil0" d="M1371 0l-612 0c35,137 159,238 306,238 148,0 271,-101 306,-238z"/>
  <path class="fil0" d="M257 0l-257 0c12,150 54,291 121,417l136 0 0 -417z"/>
  <path class="fil0" d="M1933 417l76 0c67,-126 110,-267 121,-417l-197 0 0 417z"/>
  <path class="fil0" d="M317 1899l0 -753c111,68 233,121 361,157l0 596 -361 0z"/>
  <path class="fil1" d="M3956 1379l0 215 -992 0 0 -171 623 -751 -610 0 0 -214 955 0 0 170 -621 751 645 0zm1097 -219c0,4 -2,26 -5,69l-660 0c11,54 40,96 84,128 44,31 99,47 165,47 46,0 86,-7 121,-20 35,-14 68,-35 98,-65l135 146c-82,94 -202,142 -360,142 -99,0 -186,-20 -261,-58 -76,-38 -134,-92 -175,-160 -42,-68 -62,-145 -62,-232 0,-85 20,-162 61,-231 40,-69 96,-122 167,-160 71,-39 150,-58 237,-58 86,0 163,18 232,55 70,37 124,90 163,158 40,69 60,149 60,239zm-453 -261c-57,0 -105,17 -144,49 -39,32 -63,77 -72,133l430 0c-9,-55 -32,-99 -71,-132 -39,-33 -87,-50 -143,-50zm965 -63c30,-42 71,-74 122,-96 52,-21 111,-32 178,-32l0 234c-28,-3 -47,-4 -57,-4 -72,0 -129,21 -170,61 -41,41 -62,101 -62,183l0 412 -253 0 0 -873 242 0 0 115zm960 771c-92,0 -175,-20 -248,-58 -73,-38 -130,-92 -171,-160 -41,-68 -61,-145 -61,-232 0,-86 20,-164 61,-232 41,-68 98,-121 171,-159 73,-39 156,-58 248,-58 92,0 174,19 246,58 73,38 129,91 170,159 42,68 62,146 62,232 0,87 -20,164 -62,232 -41,68 -97,122 -170,160 -72,38 -154,58 -246,58zm0 -208c65,0 118,-22 159,-66 42,-44 63,-102 63,-176 0,-73 -21,-132 -63,-176 -41,-44 -94,-65 -159,-65 -65,0 -119,21 -161,65 -42,44 -63,103 -63,176 0,74 21,132 63,176 42,44 96,66 161,66zm895 -727l-364 0 0 -214 990 0 0 214 -364 0 0 922 -262 0 0 -922zm1177 935c-92,0 -175,-20 -248,-58 -72,-38 -130,-92 -171,-160 -41,-68 -61,-145 -61,-232 0,-86 20,-164 61,-232 41,-68 99,-121 171,-159 73,-39 156,-58 248,-58 92,0 174,19 246,58 73,38 130,91 171,159 41,68 61,146 61,232 0,87 -20,164 -61,232 -41,68 -98,122 -171,160 -72,38 -154,58 -246,58zm0 -208c65,0 118,-22 160,-66 41,-44 62,-102 62,-176 0,-73 -21,-132 -62,-176 -42,-44 -95,-65 -160,-65 -65,0 -119,21 -161,65 -42,44 -63,103 -63,176 0,74 21,132 63,176 42,44 96,66 161,66zm1808 -941l0 1136 -263 0 0 -466 -516 0 0 466 -262 0 0 -1136 262 0 0 448 516 0 0 -448 263 0zm1208 702c0,4 -2,26 -5,69l-660 0c12,54 40,96 84,128 45,31 100,47 166,47 45,0 85,-7 121,-20 35,-14 67,-35 98,-65l134 146c-82,94 -202,142 -360,142 -98,0 -185,-20 -261,-58 -76,-38 -134,-92 -175,-160 -41,-68 -62,-145 -62,-232 0,-85 21,-162 61,-231 41,-69 96,-122 167,-160 71,-39 150,-58 238,-58 85,0 163,18 232,55 69,37 123,90 163,158 39,69 59,149 59,239zm-453 -261c-57,0 -105,17 -144,49 -39,32 -63,77 -71,133l430 0c-9,-55 -33,-99 -72,-132 -39,-33 -86,-50 -143,-50zm965 -63c30,-42 71,-74 123,-96 51,-21 110,-32 177,-32l0 234c-28,-3 -47,-4 -56,-4 -73,0 -130,21 -171,61 -41,41 -61,101 -61,183l0 412 -253 0 0 -873 241 0 0 115zm960 771c-92,0 -174,-20 -247,-58 -73,-38 -130,-92 -171,-160 -41,-68 -62,-145 -62,-232 0,-86 21,-164 62,-232 41,-68 98,-121 171,-159 73,-39 155,-58 247,-58 92,0 174,19 247,58 72,38 129,91 170,159 41,68 62,146 62,232 0,87 -21,164 -62,232 -41,68 -98,122 -170,160 -73,38 -155,58 -247,58zm0 -208c65,0 118,-22 160,-66 41,-44 62,-102 62,-176 0,-73 -21,-132 -62,-176 -42,-44 -95,-65 -160,-65 -65,0 -118,21 -160,65 -43,44 -64,103 -64,176 0,74 21,132 64,176 42,44 95,66 160,66z"/>
 </g>
</svg>
